<?xml version="1.0" standalone="no"?><!DOCTYPE svg PUBLIC "-//W3C//DTD SVG 1.1//EN" "http://www.w3.org/Graphics/SVG/1.1/DTD/svg11.dtd"><svg t="1615358928790" class="icon" viewBox="0 0 1024 1024" version="1.1" xmlns="http://www.w3.org/2000/svg" p-id="9826" width="280" height="280" xmlns:xlink="http://www.w3.org/1999/xlink"><defs><style type="text/css"></style></defs><path d="M423.7312 648.52992h176.5376L512 560.27136zM317.93152 789.12512h388.096A219.99616 219.99616 0 0 0 666.8288 716.8H357.13024a221.41952 221.41952 0 0 0-39.19872 72.32512zM423.7312 375.47008L512 463.72864l88.2688-88.25856zM307.2 102.4h409.6v64.2048H307.2zM307.2 857.3952h409.6V921.6H307.2zM706.02752 234.87488h-388.096A220.90752 220.90752 0 0 0 357.13024 307.2H666.8288a219.50464 219.50464 0 0 0 39.19872-72.32512zM853.32992 102.4h-68.25984v64.2048c0 80.40448-32.60416 153.20064-85.34016 205.9264L560.27136 512l139.45856 139.4688c52.736 52.72576 85.34016 125.53216 85.34016 205.9264V921.6h68.25984C890.86976 921.6 921.6 890.86976 921.6 853.32992V170.67008C921.6 133.13024 890.86976 102.4 853.32992 102.4zM324.27008 651.4688L463.72864 512 324.27008 372.5312c-52.736-52.72576-85.34016-125.53216-85.34016-205.9264V102.4h-68.25984C133.13024 102.4 102.4 133.13024 102.4 170.67008v682.65984C102.4 890.86976 133.13024 921.6 170.67008 921.6h68.25984v-64.2048c0-80.39424 32.60416-153.1904 85.34016-205.9264z" p-id="9827" fill="#515151"></path></svg>