<?xml version="1.0" standalone="no"?><!DOCTYPE svg PUBLIC "-//W3C//DTD SVG 1.1//EN" "http://www.w3.org/Graphics/SVG/1.1/DTD/svg11.dtd"><svg t="1606296948709" class="icon" viewBox="0 0 1024 1024" version="1.1" xmlns="http://www.w3.org/2000/svg" p-id="2804" width="200" height="200" xmlns:xlink="http://www.w3.org/1999/xlink"><defs><style type="text/css"></style></defs><path d="M469.344 789.344c176.736 0 320-143.264 320-320s-143.264-320-320-320-320 143.264-320 320 143.264 320 320 320z m296.864-44.032l136.704 139.936a42.656 42.656 0 0 1-61.056 59.616l-140.096-143.424a403.488 403.488 0 0 1-232.416 73.216C245.44 874.656 64 693.216 64 469.344S245.472 64 469.344 64c223.84 0 405.312 181.472 405.312 405.344 0 106.592-41.152 203.584-108.448 275.968z" p-id="2805" fill="#2299ff"></path></svg>